<svg width="163" height="32" viewBox="0 0 163 32" fill="none" xmlns="http://www.w3.org/2000/svg">
<g clip-path="url(#clip0)">
<path fill-rule="evenodd" clip-rule="evenodd" d="M48.2715 5.17533V-0.158001H48.8999V2.48891L51.3351 -0.158001H52.1206L49.6462 2.48891L52.317 5.17533H51.4922L48.8999 2.56792V5.17533H48.2715ZM60.1332 0.395083C60.0153 1.10619 59.9368 1.69879 59.819 2.21237C59.7011 2.72595 59.5833 3.16051 59.5047 3.51607C59.3869 3.87162 59.2691 4.14817 59.1512 4.38521C59.0334 4.62225 58.8763 4.78027 58.7585 4.89879C58.6014 5.0173 58.4835 5.09632 58.3264 5.13582C58.1693 5.17533 58.0122 5.21484 57.8551 5.21484C57.8158 5.21484 57.7765 5.21484 57.7373 5.21484C57.698 5.21484 57.6587 5.21484 57.6194 5.21484V4.58274C57.6587 4.58274 57.7373 4.58274 57.7765 4.58274C57.8551 4.58274 57.9337 4.58274 57.9729 4.58274C58.0515 4.58274 58.13 4.54323 58.2086 4.50372C58.2872 4.46422 58.3657 4.3852 58.4443 4.30619C58.5228 4.22718 58.6014 4.10866 58.6799 3.95064C58.7585 3.79261 58.837 3.59508 58.9156 3.35805C58.9941 3.12101 59.0727 2.84446 59.1512 2.52841C59.2298 2.21236 59.3084 1.81731 59.3869 1.38274C59.4655 0.948169 59.544 0.434592 59.6226 -0.158001H62.1363V5.17533H61.5079V0.434592H60.1332V0.395083ZM72.1127 -0.19751H72.7804V5.13582H72.152V2.72595C72.152 1.85681 72.152 1.1852 72.1912 0.711128H72.152C71.9163 1.10619 71.6021 1.58027 71.2093 2.17286L69.1276 5.13582H68.4599V-0.19751H69.0883V2.48891C69.0883 3.16051 69.0883 3.75311 69.0491 4.22719H69.0883C69.324 3.87163 69.6382 3.35805 70.031 2.76545L72.1127 -0.19751ZM79.6932 2.13335H82.4818V-0.158001H83.1103V5.17533H82.4818V2.72595H79.6932V5.17533H79.0647V-0.158001H79.6932V2.13335ZM92.6939 -0.19751H93.3616V5.13582H92.7332V2.72595C92.7332 1.85681 92.7332 1.1852 92.7724 0.711128H92.7332C92.4975 1.10619 92.1833 1.58027 91.7905 2.17286L89.7088 5.13582H89.0411V-0.19751H89.6695V2.48891C89.6695 3.16051 89.6696 3.75311 89.6303 4.22719H89.6695C89.9052 3.87163 90.2194 3.35805 90.6122 2.76545L92.6939 -0.19751ZM99.0961 5.17533V-0.158001H99.7245V2.48891L102.16 -0.158001H102.945L100.471 2.48891L103.142 5.17533H102.317L99.7245 2.56792V5.17533H99.0961ZM108.051 5.17533L110.211 -0.158001H110.761L112.922 5.17533H112.215L111.586 3.55558H109.387L108.758 5.17533H108.051ZM110.486 0.632122C110.251 1.30373 110.015 1.89632 109.819 2.44941L109.622 2.96298H111.39L111.193 2.44941C110.958 1.89632 110.722 1.30373 110.486 0.632122Z" fill="#0C5F9D"/>
<path fill-rule="evenodd" clip-rule="evenodd" d="M4.00599 15.605C4.20238 15.5654 4.39876 15.4864 4.59515 15.3679C4.79153 15.2494 4.98792 15.1309 5.18431 15.0124C5.30214 14.8938 5.45925 14.7753 5.5378 14.6568C5.65563 14.4988 5.73419 14.3408 5.81274 14.1432C5.8913 13.9457 5.93057 13.7482 5.93057 13.4716C5.93057 13.0371 5.81274 12.6815 5.57708 12.3259C5.34141 12.0099 5.0272 11.7334 4.63443 11.5358C4.24166 11.3383 3.73106 11.2593 3.18118 11.2593C2.98479 11.2593 2.82768 11.2593 2.63129 11.2988C2.43491 11.3383 2.2778 11.3383 2.12069 11.3778C1.96358 11.4173 1.84575 11.4568 1.72792 11.4568C1.53153 11.4963 1.37443 11.5753 1.17804 11.6148C1.02093 11.6543 0.824547 11.7333 0.667438 11.7729C0.667438 11.8914 0.628165 12.0099 0.628165 12.1679C0.628165 12.3259 0.588885 12.484 0.588885 12.6815C0.549608 12.879 0.549609 13.0371 0.510332 13.2346C0.471055 13.3926 0.471056 13.5901 0.431779 13.7087L0.863824 13.7482C0.942378 13.5111 1.02093 13.2741 1.13876 13.0371C1.25659 12.8 1.37443 12.563 1.53153 12.3654C1.68864 12.1679 1.88503 12.0099 2.12069 11.8914C2.35635 11.7729 2.63129 11.6938 2.94551 11.6938C3.25973 11.6938 3.53467 11.7729 3.80961 11.8914C4.08455 12.0099 4.28093 12.2469 4.39876 12.5235C4.55587 12.8 4.63443 13.1556 4.63443 13.5901C4.63443 13.8667 4.59515 14.1037 4.5166 14.3408C4.43804 14.5383 4.32021 14.7358 4.1631 14.8543C4.006 15.0124 3.88816 15.0914 3.69177 15.1704C3.53467 15.2494 3.37756 15.2889 3.22045 15.2889C3.10262 15.2889 2.98479 15.2889 2.86696 15.2494C2.74913 15.2099 2.63129 15.2099 2.51346 15.1704C2.39563 15.1309 2.23852 15.1309 2.12069 15.1309C2.00286 15.1309 1.88503 15.1704 1.80648 15.2099C1.72792 15.2494 1.64937 15.2889 1.57081 15.3679C1.53154 15.4469 1.49226 15.5259 1.49226 15.605C1.49226 15.684 1.53154 15.763 1.57081 15.842C1.61009 15.921 1.68864 15.9605 1.7672 16C1.84575 16.0395 1.96359 16.0395 2.08142 16.0395C2.23853 16.0395 2.35635 16.0395 2.51346 16C2.63129 15.9605 2.74913 15.9605 2.86696 15.921C2.98479 15.8815 3.10262 15.8815 3.22045 15.8815C3.41684 15.8815 3.61322 15.921 3.84889 16.0395C4.04527 16.158 4.24166 16.2766 4.39876 16.4741C4.55587 16.6716 4.71298 16.9087 4.79153 17.1852C4.90937 17.4617 4.94865 17.7383 4.94865 18.0938C4.94865 18.4494 4.90937 18.7655 4.83081 19.0025C4.75226 19.279 4.63443 19.4766 4.47732 19.6741C4.32021 19.8321 4.1631 19.9901 4.00599 20.1087C3.84888 20.2272 3.6525 20.2667 3.45612 20.3457C3.25973 20.3852 3.10262 20.4247 2.94551 20.3852C2.67057 20.3852 2.39563 20.3457 2.15997 20.2667C1.92431 20.1877 1.68865 20.0691 1.49226 19.8716C1.29587 19.6741 1.13876 19.3975 0.981656 19.0815C0.903102 18.9235 0.824546 18.805 0.745991 18.6864C0.667437 18.6074 0.549607 18.5679 0.471053 18.5679C0.392499 18.5679 0.313948 18.6074 0.235394 18.6469C0.15684 18.6864 0.117562 18.7655 0.0390082 18.8445C-0.000268877 18.9235 -0.0395508 19.042 -0.0395508 19.1605C-0.0395508 19.358 0.0390034 19.5161 0.156835 19.7136C0.274666 19.9111 0.431776 20.0692 0.667438 20.2272C0.863824 20.3852 1.06021 20.5037 1.33515 20.5827C1.57081 20.6617 1.84575 20.7408 2.08142 20.7803C2.35636 20.8198 2.63129 20.8593 2.90623 20.8593C3.22045 20.8593 3.57394 20.8198 3.88816 20.7408C4.20238 20.6617 4.5166 20.5432 4.83081 20.4247C5.14503 20.2667 5.38069 20.1087 5.61636 19.8716C5.85202 19.6346 6.0484 19.3975 6.16623 19.0815C6.28407 18.7654 6.36262 18.4099 6.36262 18.0543C6.36262 17.6593 6.28407 17.3432 6.16623 17.0272C6.0484 16.7506 5.85202 16.5136 5.65563 16.3161C5.41997 16.1185 5.18431 15.9605 4.90937 15.842C4.63443 15.7235 4.32021 15.6445 4.00599 15.605ZM15.5927 20.1877H14.7679C14.6108 20.1877 14.5323 20.1877 14.4537 20.1482C14.3752 20.1087 14.3359 20.0296 14.2966 19.9506C14.2573 19.8321 14.2573 19.6741 14.2573 19.4766V13.3531C14.2573 13.0371 14.2573 12.7605 14.2966 12.6025C14.3359 12.405 14.3752 12.2864 14.4537 12.1679C14.5323 12.0889 14.6501 12.0099 14.8072 11.9704C14.9643 11.9309 15.2 11.8914 15.4356 11.8914V11.4963H8.24792V11.8914L8.7978 11.9704C8.99418 12.0099 9.1513 12.0494 9.26913 12.0889C9.38696 12.1284 9.46551 12.2074 9.50479 12.3259C9.54407 12.4445 9.58334 12.6025 9.58334 12.8C9.58334 13.3136 9.58334 13.8272 9.54407 14.3803C9.50479 14.8938 9.46551 15.4469 9.38696 15.9605C9.3084 16.4741 9.22985 16.9877 9.1513 17.4618C9.03347 17.9358 8.91563 18.3704 8.7978 18.805C8.67997 19.2395 8.52286 19.5951 8.32648 19.9111C8.2872 20.0296 8.20864 20.1087 8.13009 20.1482C8.05153 20.1877 7.97298 20.1877 7.85515 20.1877H7.26599L7.18744 23.0716H7.61949L7.9337 21.8469C7.97298 21.6099 8.05154 21.4124 8.09082 21.2543C8.13009 21.0963 8.20865 20.9778 8.2872 20.8988C8.36576 20.8198 8.48358 20.7408 8.60141 20.7012C8.71924 20.6617 8.87635 20.6617 9.11202 20.6617H13.5503C13.786 20.6617 13.9431 20.7013 14.1002 20.7408C14.218 20.7803 14.3359 20.8988 14.4144 21.0568C14.493 21.2148 14.5323 21.4519 14.5715 21.7679L14.7286 23.0321H15.1607L15.5927 20.1877ZM13.079 19.1605C13.079 19.4766 13.079 19.6741 13.0005 19.8321C12.9612 19.9901 12.8826 20.0692 12.7255 20.1482C12.6077 20.1877 12.4113 20.2272 12.1756 20.2272H9.50479C9.38696 20.2272 9.30841 20.2272 9.26913 20.1877C9.22985 20.1482 9.19057 20.1087 9.19057 20.0297C9.19057 19.9506 9.19057 19.8716 9.22985 19.7926C9.42624 19.279 9.58334 18.6864 9.70117 18.0938C9.81901 17.5012 9.93684 16.8692 10.0154 16.2371C10.0939 15.605 10.1332 14.9729 10.1725 14.3013C10.2118 13.6692 10.2118 13.0371 10.2118 12.4445C10.2118 12.3259 10.2118 12.2074 10.2511 12.1284C10.2903 12.0494 10.3296 12.0099 10.4082 12.0099C10.4867 12.0099 10.6438 11.9704 10.8009 11.9704H12.4506C12.5684 11.9704 12.6862 11.9704 12.7648 12.0099C12.8433 12.0099 12.8826 12.0494 12.9219 12.1284C12.9612 12.2074 12.9612 12.2864 13.0005 12.405C13.0005 12.5235 13.0005 12.721 13.0005 12.958V19.1605H13.079ZM21.445 11.2593C20.8559 11.2593 20.306 11.3383 19.7954 11.5358C19.2848 11.6939 18.8527 11.9704 18.46 12.2864C18.0672 12.6025 17.753 12.958 17.478 13.3926C17.2031 13.8272 17.0067 14.2617 16.8889 14.7358C16.7318 15.2099 16.6925 15.7235 16.6925 16.2371C16.6925 16.7901 16.7711 17.3037 16.9282 17.7778C17.0853 18.2519 17.2817 18.6864 17.5566 19.0815C17.8315 19.4766 18.1458 19.7926 18.5385 20.0691C18.9313 20.3457 19.3241 20.5827 19.7954 20.7012C20.2667 20.8593 20.738 20.9383 21.2486 20.9383C21.7593 20.9383 22.2698 20.8593 22.7412 20.7012C23.2125 20.5432 23.6445 20.3457 24.0373 20.0691C24.4301 19.7926 24.7836 19.4371 25.0585 19.042C25.3335 18.6469 25.5691 18.1729 25.7262 17.6593C25.8833 17.1457 25.9619 16.5926 25.9619 15.9605C25.9619 15.4074 25.8833 14.8543 25.7262 14.3803C25.5691 13.9062 25.3335 13.4716 25.0585 13.0766C24.7836 12.6815 24.4301 12.3655 24.0373 12.0889C23.6445 11.8124 23.2518 11.6148 22.7805 11.4568C22.427 11.3383 21.9556 11.2593 21.445 11.2593ZM21.1701 11.7729C21.6414 11.7729 22.0735 11.8914 22.4662 12.0494C22.859 12.2469 23.2518 12.5235 23.566 12.9185C23.8802 13.3136 24.1159 13.7877 24.3123 14.3408C24.4694 14.8938 24.5872 15.5654 24.5872 16.3161C24.5872 16.9877 24.5086 17.5803 24.3515 18.0938C24.1944 18.6074 23.9588 19.0025 23.6838 19.358C23.4089 19.7136 23.0947 19.9506 22.7412 20.1087C22.3877 20.2667 21.9949 20.3457 21.6021 20.3457C21.0915 20.3457 20.6595 20.2272 20.2274 19.9901C19.7954 19.7531 19.4419 19.4371 19.1277 19.042C18.8135 18.6469 18.5778 18.1334 18.4207 17.5803C18.2636 17.0272 18.1458 16.3951 18.1458 15.7235C18.1458 15.0519 18.2243 14.4593 18.3814 13.9852C18.5385 13.4716 18.7742 13.0766 19.0491 12.721C19.3241 12.3655 19.6383 12.1284 20.0311 11.9704C20.3845 11.8519 20.7773 11.7729 21.1701 11.7729ZM27.2973 11.4568V11.8519C27.5723 11.8519 27.7686 11.8914 27.9258 11.9309C28.0829 11.9704 28.2007 12.0099 28.2792 12.0889C28.3578 12.1679 28.3971 12.3259 28.4364 12.484C28.4756 12.6815 28.4756 12.9185 28.4756 13.2346V18.9235C28.4756 19.2 28.4756 19.4371 28.4364 19.6346C28.3971 19.7926 28.3578 19.9506 28.2792 20.0297C28.2007 20.1087 28.0829 20.1877 27.8865 20.2272C27.7294 20.2667 27.4937 20.3062 27.2188 20.3062V20.7012H31.0286V20.3062C30.7144 20.3062 30.4788 20.2667 30.2824 20.2272C30.086 20.1877 29.9682 20.1482 29.8503 20.0297C29.7718 19.9506 29.6932 19.7926 29.6539 19.6346C29.6147 19.4766 29.6147 19.2395 29.6147 18.9235V16.7111L30.6752 16.9877C30.7537 16.9877 30.8715 16.9877 30.9894 16.9877C31.1072 16.9877 31.225 16.9877 31.3429 16.9877C31.6964 16.9482 32.0106 16.8691 32.3641 16.7111C32.6783 16.5531 32.9925 16.3951 33.2282 16.158C33.5031 15.921 33.6995 15.6445 33.8566 15.2889C34.0137 14.9334 34.0923 14.5383 34.0923 14.1037C34.0923 13.6297 34.0137 13.2346 33.8566 12.9185C33.6995 12.6025 33.4638 12.3259 33.1889 12.1284C32.9139 11.9309 32.5605 11.7729 32.1677 11.6543C31.7749 11.5753 31.3036 11.4963 30.8323 11.5358H27.2973V11.4568ZM29.6539 12.7605C29.6539 12.563 29.6539 12.405 29.6932 12.3259C29.7325 12.2074 29.7718 12.1679 29.8111 12.0889C29.8503 12.0494 29.9682 12.0099 30.086 11.9704C30.2038 11.9309 30.4002 11.9309 30.5966 11.9309C30.8715 11.9309 31.1465 11.9704 31.4214 12.0494C31.6964 12.1284 31.8927 12.2469 32.0891 12.4445C32.2855 12.6025 32.4426 12.8395 32.5605 13.1161C32.6783 13.3926 32.7176 13.7087 32.7176 14.1037C32.7176 14.5383 32.639 14.9334 32.5212 15.2099C32.4033 15.5259 32.2462 15.763 32.0499 15.921C31.8535 16.079 31.6178 16.1976 31.3821 16.2766C31.1465 16.3556 30.9108 16.3951 30.6752 16.3951C30.4395 16.3951 30.2431 16.3556 30.0467 16.3556C29.8503 16.3161 29.7325 16.2766 29.6539 16.2371V12.7605ZM39.9838 11.2593C39.3947 11.2593 38.8448 11.3383 38.3342 11.5358C37.8236 11.6939 37.3915 11.9704 36.9988 12.2864C36.606 12.6025 36.2918 12.958 36.0168 13.3926C35.7419 13.8272 35.5455 14.2617 35.4277 14.7358C35.2706 15.2099 35.2313 15.7235 35.2313 16.2371C35.2313 16.7901 35.3098 17.3037 35.467 17.7778C35.6241 18.2519 35.8204 18.6864 36.0954 19.0815C36.3703 19.4766 36.6845 19.7926 37.0773 20.0691C37.4701 20.3457 37.8629 20.5827 38.3342 20.7012C38.8055 20.8593 39.2768 20.9383 39.7874 20.9383C40.298 20.9383 40.8086 20.8593 41.28 20.7012C41.7513 20.5432 42.1833 20.3457 42.5761 20.0691C42.9689 19.7926 43.3224 19.4371 43.5973 19.042C43.8723 18.6469 44.1079 18.1729 44.265 17.6593C44.4221 17.1457 44.5007 16.5926 44.5007 15.9605C44.5007 15.4074 44.4221 14.8543 44.265 14.3803C44.1079 13.9062 43.8723 13.4716 43.5973 13.0766C43.3224 12.6815 42.9689 12.3655 42.5761 12.0889C42.1833 11.8124 41.7906 11.6148 41.3193 11.4568C40.9265 11.3383 40.4551 11.2593 39.9838 11.2593ZM39.6696 11.7729C40.1409 11.7729 40.573 11.8914 40.9657 12.0494C41.3585 12.2469 41.7513 12.5235 42.0655 12.9185C42.3797 13.3136 42.6154 13.7877 42.8118 14.3408C42.9689 14.8938 43.0867 15.5654 43.0867 16.3161C43.0867 16.9877 43.0082 17.5803 42.8511 18.0938C42.694 18.6074 42.4583 19.0025 42.1833 19.358C41.9084 19.7136 41.5942 19.9506 41.2407 20.1087C40.8872 20.2667 40.4944 20.3457 40.1017 20.3457C39.5911 20.3457 39.159 20.2272 38.727 19.9901C38.2949 19.7531 37.9414 19.4371 37.6272 19.042C37.313 18.6469 37.0773 18.1334 36.9202 17.5803C36.7631 17.0272 36.6453 16.3951 36.6453 15.7235C36.6453 15.0519 36.7238 14.4593 36.8809 13.9852C37.038 13.4716 37.2737 13.0766 37.5486 12.721C37.8236 12.3655 38.1378 12.1284 38.5306 11.9704C38.8841 11.8519 39.2768 11.7729 39.6696 11.7729ZM50.3923 15.684C50.5886 15.6445 50.785 15.5655 51.0207 15.4469C51.2564 15.3284 51.4527 15.2099 51.6491 15.0519C51.8455 14.8938 52.0026 14.6963 52.1205 14.4198C52.2383 14.1827 52.3168 13.9062 52.3168 13.5506C52.3168 13.3136 52.2776 13.1161 52.2383 12.9185C52.1597 12.721 52.0812 12.5235 51.9633 12.3654C51.8455 12.2074 51.6884 12.0494 51.5313 11.9309C51.3742 11.8124 51.2171 11.7334 51.0207 11.6543C50.8243 11.5753 50.5886 11.5358 50.3137 11.4963C50.0388 11.4568 49.7245 11.4568 49.4103 11.4568H45.7968V11.8519C46.0718 11.8519 46.3074 11.8914 46.4645 11.9309C46.6217 11.9704 46.7395 12.0099 46.818 12.1284C46.8966 12.2074 46.9359 12.3259 46.9752 12.5235C46.9752 12.6815 47.0144 12.9185 47.0144 13.2346V18.963C47.0144 19.2395 47.0144 19.4766 46.9752 19.6741C46.9359 19.8321 46.8966 19.9901 46.818 20.0691C46.7395 20.1482 46.6217 20.2272 46.4253 20.2667C46.2682 20.3062 45.9932 20.3457 45.7183 20.3457V20.7408H48.8212C49.3711 20.7408 49.8817 20.7013 50.353 20.6222C50.8243 20.5432 51.2171 20.3852 51.5706 20.1877C51.8455 20.0296 52.0812 19.8321 52.2776 19.6346C52.4739 19.4371 52.6311 19.2 52.7489 18.9235C52.8667 18.6469 52.906 18.3704 52.906 18.0543C52.906 17.6988 52.8274 17.3827 52.7096 17.1457C52.5918 16.8692 52.3954 16.6716 52.1597 16.4741C51.9241 16.2766 51.6491 16.158 51.3742 16.0395C51.06 15.921 50.7458 15.842 50.3923 15.8025V15.684ZM48.1535 15.5654V12.8C48.1535 12.642 48.1535 12.5235 48.1535 12.4445C48.1535 12.3655 48.1927 12.2864 48.232 12.2074C48.2713 12.1679 48.3106 12.1284 48.3499 12.0889C48.4284 12.0494 48.5462 12.0099 48.6641 11.9704C48.8212 11.9309 48.9783 11.9309 49.1354 11.9309C49.4889 11.9309 49.7638 11.9704 49.9995 12.0889C50.2351 12.1679 50.4315 12.3259 50.5886 12.484C50.7458 12.642 50.8636 12.8395 50.9029 13.0766C50.9814 13.3136 51.0207 13.5111 51.0207 13.7877C51.0207 14.1827 50.9421 14.5383 50.785 14.7753C50.6279 15.0519 50.3923 15.2494 50.078 15.3679C49.7638 15.4864 49.3318 15.5654 48.8212 15.5654H48.1535ZM48.1535 16.0395H48.8212C49.4103 16.0395 49.8817 16.1185 50.2744 16.2766C50.6672 16.4346 50.9814 16.6716 51.1778 16.9482C51.3742 17.2642 51.492 17.6593 51.492 18.1333C51.492 18.4889 51.4135 18.805 51.2956 19.0815C51.1778 19.358 51.0207 19.5556 50.8243 19.7136C50.6279 19.8716 50.3923 19.9901 50.1173 20.0691C49.8424 20.1482 49.5674 20.1877 49.2925 20.1877C48.9783 20.1877 48.7426 20.1482 48.5855 20.0691C48.4284 19.9901 48.3106 19.8716 48.232 19.6741C48.1535 19.4766 48.1142 19.2395 48.1142 18.884V16.0395H48.1535ZM58.8368 11.2593C58.2477 11.2593 57.6978 11.3383 57.1872 11.5358C56.6766 11.6939 56.2446 11.9704 55.8518 12.2864C55.459 12.6025 55.1448 12.958 54.8699 13.3926C54.5949 13.8272 54.3985 14.2617 54.2807 14.7358C54.1236 15.2099 54.0843 15.7235 54.0843 16.2371C54.0843 16.7901 54.1629 17.3037 54.32 17.7778C54.4771 18.2519 54.6735 18.6864 54.9484 19.0815C55.2233 19.4766 55.5376 19.7926 55.9303 20.0691C56.3231 20.3457 56.7159 20.5827 57.1872 20.7012C57.6585 20.8593 58.1298 20.9383 58.6404 20.9383C59.1511 20.9383 59.6617 20.8593 60.133 20.7012C60.6043 20.5432 61.0364 20.3457 61.4291 20.0691C61.8219 19.7926 62.1754 19.4371 62.4503 19.042C62.7253 18.6469 62.9609 18.1729 63.118 17.6593C63.2752 17.1457 63.3537 16.5926 63.3537 15.9605C63.3537 15.4074 63.2752 14.8543 63.118 14.3803C62.9609 13.9062 62.7253 13.4716 62.4503 13.0766C62.1754 12.6815 61.8219 12.3655 61.4291 12.0889C61.0364 11.8124 60.6436 11.6148 60.1723 11.4568C59.7795 11.3383 59.3082 11.2593 58.8368 11.2593ZM58.5226 11.7729C58.9939 11.7729 59.426 11.8914 59.8188 12.0494C60.2115 12.2469 60.6043 12.5235 60.9185 12.9185C61.2327 13.3136 61.4684 13.7877 61.6648 14.3408C61.8219 14.8938 61.9397 15.5654 61.9397 16.3161C61.9397 16.9877 61.8612 17.5803 61.7041 18.0938C61.547 18.6074 61.3113 19.0025 61.0364 19.358C60.7614 19.7136 60.4472 19.9506 60.0937 20.1087C59.7402 20.2667 59.3474 20.3457 58.9547 20.3457C58.4441 20.3457 58.012 20.2272 57.58 19.9901C57.1479 19.7531 56.7944 19.4371 56.4802 19.042C56.166 18.6469 55.9303 18.1334 55.7732 17.5803C55.6161 17.0272 55.4983 16.3951 55.4983 15.7235C55.4983 15.0519 55.5768 14.4593 55.7339 13.9852C55.8911 13.4716 56.1267 13.0766 56.4017 12.721C56.6766 12.3655 56.9908 12.1284 57.3836 11.9704C57.7764 11.8519 58.1299 11.7729 58.5226 11.7729ZM71.2877 18.4099C71.2091 18.6864 71.0913 18.963 70.9735 19.2C70.8556 19.4371 70.7378 19.6346 70.62 19.7531C70.5021 19.8716 70.3843 19.9901 70.2665 20.0297C70.1094 20.1087 69.9523 20.1482 69.7166 20.1877C69.4809 20.2272 69.206 20.2272 68.8525 20.2272C68.499 20.2272 68.1848 20.2272 67.9491 20.1877C67.7135 20.1482 67.5171 20.1087 67.36 20.0297C67.2814 19.9901 67.2029 19.9111 67.1636 19.7926C67.1243 19.7136 67.085 19.5951 67.0458 19.4371C67.0065 19.279 67.0065 19.121 67.0065 18.884V16.1975H68.3419C68.6561 16.1975 68.8918 16.1976 69.0882 16.2371C69.2845 16.2766 69.4024 16.3161 69.5202 16.3951C69.5988 16.4741 69.6773 16.5926 69.7559 16.7111C69.7952 16.8691 69.8737 17.0667 69.913 17.3037H70.3058V14.5778H69.913C69.8737 14.8148 69.8344 15.0124 69.7952 15.1309C69.7559 15.2889 69.6773 15.3679 69.5595 15.4469C69.4809 15.5259 69.3238 15.5654 69.1274 15.605C68.9311 15.6445 68.6954 15.6445 68.3812 15.6445H67.0458V12.405C67.0458 12.2469 67.0458 12.1679 67.085 12.0889C67.085 12.0099 67.1636 11.9704 67.2029 11.9704C67.2814 11.9704 67.36 11.9309 67.5171 11.9309H68.5776C68.9311 11.9309 69.206 11.9309 69.4024 11.9704C69.5988 12.0099 69.7952 12.0494 69.913 12.0889C70.0308 12.1284 70.1094 12.2074 70.1879 12.3259C70.2665 12.4445 70.3058 12.5235 70.345 12.642C70.3843 12.7605 70.4629 12.879 70.5021 13.0371C70.5414 13.1951 70.5807 13.3531 70.62 13.5506L71.0127 13.4716C71.0127 13.2741 70.9735 13.0766 70.9735 12.879C70.9735 12.6815 70.9342 12.484 70.9342 12.2864C70.9342 12.0889 70.8949 11.9309 70.8949 11.7729C70.8949 11.6148 70.8949 11.4963 70.8949 11.4173H64.6106V11.8124C64.8855 11.8519 65.1212 11.8519 65.2783 11.8914C65.4354 11.9309 65.5532 11.9704 65.6318 12.0889C65.7103 12.1679 65.7496 12.3259 65.7889 12.484C65.8282 12.6815 65.8282 12.9185 65.8282 13.2346V18.963C65.8282 19.2395 65.8282 19.4766 65.7889 19.6346C65.7496 19.7926 65.7103 19.9506 65.5925 20.0297C65.5139 20.1087 65.3568 20.1877 65.1605 20.2272C64.9641 20.2667 64.7284 20.3062 64.4142 20.3062V20.7012H71.2091C71.2484 20.6222 71.2484 20.5037 71.2877 20.3457C71.327 20.1877 71.3662 20.0296 71.4055 19.8716C71.4448 19.7136 71.4841 19.5161 71.5233 19.358C71.5626 19.1605 71.6019 19.0025 71.6412 18.8445C71.6805 18.6864 71.6805 18.5679 71.7197 18.4889L71.2877 18.4099ZM85.0347 20.7012V20.3062C84.7597 20.3062 84.5241 20.2667 84.367 20.2272C84.2098 20.1877 84.092 20.1482 83.9742 20.0297C83.8956 19.9506 83.8171 19.7926 83.8171 19.6346C83.7778 19.4371 83.7778 19.2 83.7778 18.884V13.2346C83.7778 12.9185 83.7778 12.6815 83.8171 12.5235C83.8564 12.3259 83.8956 12.2074 83.9742 12.1284C84.0527 12.0494 84.1706 11.9704 84.3277 11.9309C84.4848 11.8914 84.7205 11.8914 84.9954 11.8519V11.4568H75.8046V11.8519C76.0795 11.8519 76.3152 11.8914 76.4723 11.9309C76.6294 11.9704 76.7472 12.0099 76.8258 12.1284C76.9043 12.2074 76.9436 12.3655 76.9829 12.5235C77.0221 12.721 77.0221 12.958 77.0221 13.2741V18.9235C77.0221 19.2395 77.0221 19.4766 76.9829 19.6346C76.9436 19.8321 76.9043 19.9506 76.8258 20.0297C76.7472 20.1087 76.6294 20.1877 76.4723 20.2272C76.3152 20.2667 76.0795 20.3062 75.8046 20.3062V20.7012H79.4573V20.3062C79.1824 20.3062 78.9467 20.2667 78.7896 20.2272C78.6325 20.1877 78.5147 20.1087 78.3968 20.0297C78.3183 19.9506 78.2397 19.7926 78.2397 19.6346C78.2005 19.4371 78.2005 19.2 78.2005 18.9235V12.9975C78.2005 12.7605 78.2005 12.6025 78.2397 12.4445C78.2397 12.3259 78.279 12.2074 78.3576 12.1284C78.3968 12.0494 78.5147 12.0099 78.6325 12.0099C78.7503 11.9704 78.9074 11.9704 79.1038 11.9704H81.7747C81.9711 11.9704 82.1282 11.9704 82.246 12.0099C82.3638 12.0494 82.4424 12.0889 82.4817 12.1284C82.5209 12.2074 82.5602 12.2864 82.5995 12.405C82.5995 12.5235 82.6388 12.6815 82.6388 12.9185V18.9235C82.6388 19.2395 82.6388 19.4766 82.5995 19.6741C82.5602 19.8321 82.5209 19.9901 82.4424 20.0691C82.3638 20.1482 82.246 20.2272 82.0496 20.2667C81.8925 20.3062 81.6568 20.3062 81.3819 20.3457V20.7408H85.0347V20.7012ZM90.9655 11.2593C90.3764 11.2593 89.8265 11.3383 89.3159 11.5358C88.8053 11.6939 88.3732 11.9704 87.9805 12.2864C87.5877 12.6025 87.2735 12.958 86.9985 13.3926C86.7236 13.8272 86.5272 14.2617 86.4094 14.7358C86.2523 15.2099 86.213 15.7235 86.213 16.2371C86.213 16.7901 86.2915 17.3037 86.4486 17.7778C86.6058 18.2519 86.8021 18.6864 87.0771 19.0815C87.352 19.4766 87.6662 19.7926 88.059 20.0691C88.4518 20.3457 88.8446 20.5827 89.3159 20.7012C89.7872 20.8593 90.2585 20.9383 90.7691 20.9383C91.2797 20.9383 91.7903 20.8593 92.2617 20.7012C92.733 20.5432 93.165 20.3457 93.5578 20.0691C93.9506 19.7926 94.3041 19.4371 94.579 19.042C94.8539 18.6469 95.0896 18.1729 95.2467 17.6593C95.4038 17.1457 95.4824 16.5926 95.4824 15.9605C95.4824 15.4074 95.4038 14.8543 95.2467 14.3803C95.0896 13.9062 94.8539 13.4716 94.579 13.0766C94.3041 12.6815 93.9506 12.3655 93.5578 12.0889C93.165 11.8124 92.7723 11.6148 92.3009 11.4568C91.9474 11.3383 91.4761 11.2593 90.9655 11.2593ZM90.6906 11.7729C91.1619 11.7729 91.594 11.8914 91.9867 12.0494C92.3795 12.2469 92.7723 12.5235 93.0865 12.9185C93.4007 13.3136 93.6364 13.7877 93.8327 14.3408C93.9899 14.8938 94.1077 15.5654 94.1077 16.3161C94.1077 16.9877 94.0291 17.5803 93.872 18.0938C93.7149 18.6074 93.4792 19.0025 93.2043 19.358C92.9294 19.7136 92.6152 19.9506 92.2617 20.1087C91.9082 20.2667 91.5154 20.3457 91.1226 20.3457C90.612 20.3457 90.18 20.2272 89.7479 19.9901C89.3159 19.7531 88.9624 19.4371 88.6482 19.042C88.334 18.6469 88.0983 18.1334 87.9412 17.5803C87.7841 17.0272 87.6662 16.3951 87.6662 15.7235C87.6662 15.0519 87.7448 14.4593 87.9019 13.9852C88.059 13.4716 88.2947 13.0766 88.5696 12.721C88.8446 12.3655 89.1588 12.1284 89.5515 11.9704C89.905 11.8519 90.2978 11.7729 90.6906 11.7729ZM105.145 20.7012V20.3062C104.987 20.3062 104.83 20.2667 104.673 20.2272C104.516 20.1877 104.398 20.1482 104.28 20.0691C104.163 19.9901 104.045 19.8716 103.927 19.7136C103.809 19.5556 103.691 19.3975 103.573 19.1605C103.416 18.884 103.259 18.6074 103.141 18.3309C103.024 18.0938 102.866 17.8568 102.788 17.6198C102.67 17.4222 102.552 17.2247 102.474 17.0667C102.317 16.7901 102.159 16.5926 102.002 16.4346C101.845 16.2766 101.649 16.1185 101.452 16C101.256 15.8815 101.06 15.8025 100.824 15.763V15.7235C100.903 15.684 101.02 15.605 101.138 15.4864C101.295 15.3679 101.453 15.2099 101.61 15.0124C101.767 14.8148 101.963 14.4988 102.159 14.1432C102.317 13.7877 102.474 13.5111 102.592 13.2741C102.709 13.0371 102.866 12.8395 102.945 12.6815C103.063 12.5235 103.181 12.405 103.299 12.3654C103.416 12.2864 103.573 12.2469 103.731 12.2469H104.045C104.163 12.2469 104.241 12.2074 104.32 12.2074C104.398 12.1679 104.477 12.1284 104.516 12.0494C104.555 11.9704 104.595 11.9309 104.595 11.8124C104.595 11.6938 104.555 11.6148 104.516 11.5358C104.477 11.4568 104.359 11.3778 104.241 11.3383C104.123 11.2988 104.006 11.2593 103.848 11.2593C103.652 11.2593 103.456 11.2988 103.259 11.4173C103.063 11.4963 102.866 11.6938 102.709 11.8914C102.552 12.1284 102.356 12.405 102.199 12.7605C102.042 13.1556 101.885 13.5111 101.727 13.7877C101.61 14.0642 101.452 14.3013 101.335 14.4988C101.217 14.6963 101.06 14.8543 100.942 15.0124C100.824 15.1309 100.706 15.2099 100.588 15.2889C100.471 15.3679 100.353 15.4074 100.235 15.4469C100.117 15.4864 99.96 15.5259 99.7636 15.5259C99.5672 15.5654 99.3708 15.5654 99.1351 15.5654V13.1161C99.1351 12.8395 99.1352 12.6025 99.1744 12.4445C99.2137 12.2864 99.253 12.1679 99.3315 12.0889C99.4101 12.0099 99.5279 11.9309 99.685 11.9309C99.8421 11.8914 100.078 11.8914 100.313 11.8519V11.4568H96.7392V11.8519C97.0142 11.8519 97.2106 11.8914 97.3677 11.9309C97.5248 11.9704 97.6426 12.0099 97.7212 12.0889C97.7997 12.1679 97.839 12.2864 97.8783 12.4445C97.9176 12.6025 97.9176 12.8395 97.9176 13.1161V18.884C97.9176 19.2 97.9176 19.4371 97.8783 19.5951C97.839 19.7531 97.7997 19.9111 97.7212 19.9901C97.6426 20.0692 97.5248 20.1482 97.3677 20.1877C97.2106 20.2272 97.0142 20.2667 96.7392 20.2667V20.6617H100.313V20.2667C100.039 20.2667 99.8421 20.2272 99.685 20.1877C99.5279 20.1482 99.4101 20.0692 99.3315 19.9901C99.253 19.9111 99.2137 19.7531 99.1744 19.5951C99.1352 19.4371 99.1351 19.2 99.1351 18.884V16C99.3708 16 99.6065 16 99.8029 16.0395C99.9993 16.079 100.196 16.1185 100.353 16.1975C100.51 16.2766 100.667 16.4346 100.824 16.5926C100.981 16.7506 101.099 16.9877 101.256 17.3037C101.374 17.5803 101.531 17.8173 101.649 18.0938C101.767 18.3704 101.885 18.6074 102.002 18.805C102.12 19.042 102.199 19.2 102.277 19.358C102.395 19.6346 102.552 19.8716 102.709 20.0691C102.866 20.2667 103.024 20.4247 103.22 20.5037C103.416 20.6222 103.652 20.6617 103.966 20.6617H105.145V20.7012Z" fill="#0C5F9D" stroke="#0C5F9D" stroke-width="0.0142" stroke-miterlimit="22.9256"/>
<path fill-rule="evenodd" clip-rule="evenodd" d="M110.722 11.2593C110.133 11.2593 109.583 11.3383 109.072 11.5358C108.562 11.6938 108.129 11.9704 107.737 12.2864C107.344 12.6025 107.03 12.958 106.755 13.3926C106.48 13.8272 106.283 14.2617 106.166 14.7358C106.009 15.2099 105.969 15.7235 105.969 16.2371C105.969 16.7901 106.048 17.3037 106.205 17.7778C106.362 18.2519 106.558 18.6864 106.833 19.0815C107.108 19.4766 107.422 19.7926 107.815 20.0691C108.208 20.3457 108.601 20.5827 109.072 20.7012C109.543 20.8593 110.015 20.9383 110.525 20.9383C111.036 20.9383 111.547 20.8593 112.018 20.7012C112.489 20.5432 112.921 20.3457 113.314 20.0691C113.707 19.7926 114.06 19.4371 114.335 19.042C114.61 18.6469 114.846 18.1729 115.003 17.6593C115.16 17.1457 115.239 16.5926 115.239 15.9605C115.239 15.4074 115.16 14.8543 115.003 14.3803C114.846 13.9062 114.61 13.4716 114.335 13.0766C114.06 12.6815 113.707 12.3655 113.314 12.0889C112.921 11.8124 112.529 11.6148 112.057 11.4568C111.664 11.3383 111.193 11.2593 110.722 11.2593ZM110.447 11.7729C110.918 11.7729 111.35 11.8914 111.743 12.0494C112.136 12.2469 112.529 12.5235 112.843 12.9185C113.157 13.3136 113.393 13.7877 113.589 14.3408C113.746 14.8938 113.864 15.5654 113.864 16.3161C113.864 16.9877 113.785 17.5803 113.628 18.0938C113.471 18.6074 113.236 19.0025 112.961 19.358C112.686 19.7136 112.371 19.9506 112.018 20.1087C111.664 20.2667 111.272 20.3457 110.879 20.3457C110.368 20.3457 109.936 20.2272 109.504 19.9901C109.072 19.7531 108.719 19.4371 108.404 19.042C108.09 18.6469 107.855 18.1333 107.697 17.5803C107.54 17.0272 107.422 16.3951 107.422 15.7235C107.422 15.0519 107.501 14.4593 107.658 13.9852C107.815 13.4716 108.051 13.0766 108.326 12.721C108.601 12.3655 108.915 12.1284 109.308 11.9704C109.661 11.8519 110.015 11.7729 110.447 11.7729ZM124.39 20.7012V20.3062C124.115 20.3062 123.919 20.2667 123.762 20.2272C123.605 20.1877 123.487 20.1482 123.408 20.0296C123.33 19.9506 123.29 19.7926 123.251 19.6346C123.212 19.4766 123.212 19.2 123.212 18.9235V13.1161C123.212 12.8395 123.212 12.642 123.251 12.484C123.29 12.3259 123.33 12.2074 123.408 12.1284C123.487 12.0494 123.605 11.9704 123.762 11.9309C123.919 11.8914 124.115 11.8519 124.39 11.8519V11.4568H117.36V11.8519C117.635 11.8519 117.87 11.8914 118.067 11.9309C118.263 11.9704 118.381 12.0099 118.499 12.0889C118.616 12.1679 118.656 12.2469 118.695 12.3654C118.734 12.484 118.734 12.642 118.734 12.8C118.734 13.7877 118.695 14.6963 118.577 15.4864C118.459 16.2766 118.302 16.9482 118.145 17.5408C117.949 18.1333 117.752 18.6074 117.556 18.963C117.438 19.2 117.32 19.3975 117.163 19.5556C117.006 19.7531 116.888 19.9111 116.692 20.0691C116.535 20.2272 116.299 20.3852 116.063 20.5037V20.7408C116.103 20.7803 116.181 20.7803 116.26 20.8198C116.338 20.8593 116.417 20.8593 116.535 20.8988C116.613 20.8988 116.731 20.9383 116.81 20.9383C116.967 20.9383 117.124 20.8988 117.281 20.7803C117.438 20.6617 117.635 20.5037 117.831 20.2272C118.342 19.5556 118.734 18.5679 119.009 17.2642C119.284 15.9605 119.402 14.3408 119.441 12.405C119.441 12.2864 119.441 12.2074 119.481 12.1284C119.52 12.0889 119.559 12.0099 119.638 12.0099C119.716 11.9704 119.873 11.9704 120.07 11.9704H121.523C121.68 11.9704 121.837 11.9704 121.916 12.0099C121.994 12.0494 122.034 12.0889 122.073 12.2074C122.073 12.2864 122.112 12.4445 122.073 12.642V18.9235C122.073 19.2395 122.073 19.4766 122.034 19.6346C121.994 19.8321 121.955 19.9506 121.876 20.0296C121.798 20.1087 121.68 20.1877 121.523 20.2272C121.366 20.2667 121.169 20.3062 120.895 20.3062V20.7012H124.39ZM132.285 18.4099C132.206 18.6864 132.089 18.963 131.971 19.2C131.853 19.4371 131.735 19.6346 131.617 19.7531C131.499 19.8716 131.382 19.9901 131.264 20.0296C131.107 20.1087 130.949 20.1482 130.714 20.1877C130.478 20.2272 130.203 20.2272 129.85 20.2272C129.496 20.2272 129.182 20.2272 128.946 20.1877C128.711 20.1482 128.514 20.1087 128.357 20.0296C128.279 19.9901 128.2 19.9111 128.161 19.7926C128.122 19.7136 128.082 19.5951 128.043 19.4371C128.004 19.279 128.004 19.121 128.004 18.884V16.1975H129.339C129.653 16.1975 129.889 16.1975 130.085 16.2371C130.282 16.2766 130.4 16.3161 130.517 16.3951C130.596 16.4741 130.675 16.5926 130.753 16.7111C130.792 16.8691 130.871 17.0667 130.91 17.3037H131.303V14.5778H130.91C130.871 14.8148 130.832 15.0124 130.792 15.1309C130.753 15.2889 130.675 15.3679 130.557 15.4469C130.478 15.5259 130.321 15.5654 130.125 15.605C129.928 15.6445 129.693 15.6445 129.378 15.6445H128.043V12.405C128.043 12.2469 128.043 12.1679 128.082 12.0889C128.082 12.0099 128.161 11.9704 128.2 11.9704C128.279 11.9704 128.357 11.9309 128.514 11.9309H129.575C129.928 11.9309 130.203 11.9309 130.4 11.9704C130.596 12.0099 130.792 12.0494 130.91 12.0889C131.028 12.1284 131.107 12.2074 131.185 12.3259C131.264 12.4445 131.303 12.5235 131.342 12.642C131.382 12.7605 131.46 12.879 131.499 13.0371C131.539 13.1951 131.578 13.3531 131.617 13.5506L132.01 13.4716C132.01 13.2741 131.971 13.0766 131.971 12.879C131.971 12.6815 131.931 12.484 131.931 12.2864C131.931 12.0889 131.892 11.9309 131.892 11.7729C131.892 11.6148 131.892 11.4963 131.892 11.4173H125.608V11.8124C125.883 11.8519 126.118 11.8519 126.276 11.8914C126.433 11.9309 126.55 11.9704 126.629 12.0889C126.708 12.1679 126.747 12.3259 126.786 12.484C126.825 12.6815 126.825 12.9185 126.825 13.2346V18.963C126.825 19.2395 126.825 19.4766 126.786 19.6346C126.747 19.7926 126.708 19.9506 126.59 20.0296C126.511 20.1087 126.354 20.1877 126.158 20.2272C125.961 20.2667 125.726 20.3062 125.411 20.3062V20.7012H132.206C132.246 20.6222 132.246 20.5037 132.285 20.3457C132.324 20.1877 132.363 20.0296 132.403 19.8716C132.442 19.7136 132.481 19.5161 132.521 19.358C132.56 19.1605 132.599 19.0025 132.638 18.8445C132.678 18.6864 132.678 18.5679 132.717 18.4889L132.285 18.4099ZM143.322 11.4568H139.63V11.8519C139.905 11.8914 140.14 11.8914 140.297 11.9309C140.455 11.9704 140.572 12.0099 140.651 12.1284C140.729 12.2074 140.769 12.3259 140.808 12.5235C140.847 12.6815 140.847 12.9185 140.847 13.2346V15.5259H136.016V13.2346C136.016 12.958 136.016 12.721 136.056 12.5235C136.095 12.3655 136.134 12.2074 136.213 12.1284C136.291 12.0494 136.409 11.9704 136.566 11.9309C136.723 11.8914 136.92 11.8519 137.195 11.8519V11.4568H133.542V11.8519C133.817 11.8914 134.052 11.8914 134.249 11.9309C134.406 11.9704 134.563 12.0099 134.642 12.1284C134.72 12.2074 134.799 12.3259 134.799 12.5235C134.838 12.6815 134.838 12.9185 134.838 13.2346V18.963C134.838 19.2395 134.838 19.4766 134.799 19.6741C134.759 19.8321 134.72 19.9901 134.642 20.0691C134.563 20.1482 134.445 20.2272 134.249 20.2667C134.092 20.3062 133.856 20.3062 133.581 20.3457V20.7408H137.312V20.3457C137.037 20.3457 136.802 20.3062 136.605 20.2667C136.448 20.2272 136.291 20.1877 136.213 20.0691C136.134 19.9901 136.056 19.8716 136.056 19.6741C136.016 19.5161 136.016 19.279 136.016 18.963V16.1185H140.847V18.963C140.847 19.2395 140.847 19.4766 140.808 19.6741C140.769 19.8321 140.729 19.9901 140.651 20.0691C140.572 20.1482 140.415 20.2272 140.258 20.2667C140.101 20.3062 139.826 20.3062 139.551 20.3457V20.7408H143.322V20.3457C143.047 20.3457 142.811 20.3062 142.654 20.2667C142.497 20.2272 142.34 20.1877 142.261 20.0691C142.183 19.9901 142.104 19.8716 142.104 19.6741C142.065 19.5161 142.065 19.279 142.065 18.963V13.2346C142.065 12.958 142.065 12.721 142.104 12.5235C142.143 12.3655 142.183 12.2074 142.261 12.1284C142.34 12.0494 142.458 11.9704 142.654 11.9309C142.811 11.8914 143.047 11.8519 143.361 11.8519V11.4568H143.322ZM153.887 20.7012V20.3062C153.612 20.3062 153.416 20.2667 153.259 20.2272C153.102 20.1877 152.984 20.1482 152.905 20.0296C152.827 19.9506 152.788 19.7926 152.748 19.6346C152.709 19.4766 152.709 19.2 152.709 18.9235V13.3136C152.709 12.9976 152.709 12.7605 152.748 12.563C152.788 12.3654 152.827 12.2469 152.905 12.1284C152.984 12.0494 153.102 11.9704 153.259 11.9309C153.416 11.8914 153.652 11.8519 153.887 11.8519V11.4568H151.374V11.6148C151.374 11.6938 151.374 11.7333 151.334 11.8124C151.295 11.8914 151.256 11.9704 151.216 12.0889L146.778 19.4371H146.739C146.739 18.963 146.778 18.5679 146.778 18.2124C146.778 17.8568 146.778 17.5803 146.778 17.3037C146.778 17.0667 146.778 16.8296 146.778 16.5926V13.1161C146.778 12.8395 146.778 12.642 146.817 12.4445C146.857 12.2864 146.896 12.1679 146.975 12.0889C147.053 12.0099 147.171 11.9309 147.328 11.9309C147.485 11.8914 147.682 11.8519 147.956 11.8519V11.4568H144.382V11.8519C144.657 11.8519 144.854 11.8914 145.011 11.9309C145.168 11.9704 145.286 12.0099 145.364 12.0889C145.443 12.1679 145.482 12.2864 145.521 12.4445C145.561 12.6025 145.561 12.8395 145.561 13.1161V18.7654C145.561 19.0815 145.561 19.358 145.521 19.5161C145.482 19.7136 145.443 19.8321 145.364 19.9506C145.286 20.0296 145.168 20.1087 145.011 20.1482C144.854 20.1877 144.657 20.2272 144.382 20.2272V20.6222H146.857V20.5432C146.857 20.4642 146.857 20.3457 146.896 20.2667C146.896 20.1877 146.935 20.0692 147.014 19.9901L151.491 12.563H151.531C151.491 12.9975 151.491 13.3926 151.491 13.7482C151.491 14.1037 151.491 14.3803 151.491 14.6173C151.491 14.8543 151.491 15.0519 151.491 15.2099V18.9235C151.491 19.2395 151.491 19.4766 151.452 19.6346C151.413 19.7926 151.374 19.9506 151.295 20.0296C151.216 20.1087 151.099 20.1877 150.942 20.2272C150.784 20.2667 150.549 20.3062 150.274 20.3062V20.7012H153.887ZM161.743 18.4099C161.664 18.6864 161.546 18.963 161.429 19.2C161.311 19.4371 161.193 19.6346 161.075 19.7531C160.957 19.8716 160.839 19.9901 160.722 20.0296C160.564 20.1087 160.407 20.1482 160.172 20.1877C159.936 20.2272 159.661 20.2272 159.308 20.2272C158.954 20.2272 158.64 20.2272 158.404 20.1877C158.169 20.1482 157.972 20.1087 157.815 20.0296C157.736 19.9901 157.658 19.9111 157.619 19.7926C157.579 19.7136 157.54 19.5951 157.501 19.4371C157.462 19.279 157.462 19.121 157.462 18.884V16.1975H158.797C159.111 16.1975 159.347 16.1975 159.543 16.2371C159.74 16.2766 159.857 16.3161 159.975 16.3951C160.054 16.4741 160.132 16.5926 160.211 16.7111C160.25 16.8691 160.329 17.0667 160.368 17.3037H160.761V14.5778H160.368C160.329 14.8148 160.289 15.0124 160.25 15.1309C160.211 15.2889 160.132 15.3679 160.015 15.4469C159.936 15.5259 159.779 15.5654 159.582 15.605C159.386 15.6445 159.15 15.6445 158.836 15.6445H157.501V12.405C157.501 12.2469 157.501 12.1679 157.54 12.0889C157.54 12.0099 157.619 11.9704 157.658 11.9704C157.736 11.9704 157.815 11.9309 157.972 11.9309H159.033C159.386 11.9309 159.661 11.9309 159.857 11.9704C160.054 12.0099 160.25 12.0494 160.368 12.0889C160.486 12.1284 160.564 12.2074 160.643 12.3259C160.722 12.4445 160.761 12.5235 160.8 12.642C160.839 12.7605 160.918 12.879 160.957 13.0371C160.996 13.1951 161.036 13.3531 161.075 13.5506L161.468 13.4716C161.468 13.2741 161.429 13.0766 161.429 12.879C161.429 12.6815 161.389 12.484 161.389 12.2864C161.389 12.0889 161.35 11.9309 161.35 11.7729C161.35 11.6148 161.35 11.4963 161.35 11.4173H155.066V11.8124C155.341 11.8519 155.576 11.8519 155.733 11.8914C155.89 11.9309 156.008 11.9704 156.087 12.0889C156.165 12.1679 156.205 12.3259 156.244 12.484C156.283 12.6815 156.283 12.9185 156.283 13.2346V18.963C156.283 19.2395 156.283 19.4766 156.244 19.6346C156.205 19.7926 156.165 19.9506 156.048 20.0296C155.969 20.1087 155.812 20.1877 155.616 20.2272C155.419 20.2667 155.183 20.3062 154.869 20.3062V20.7012H161.664C161.703 20.6222 161.703 20.5037 161.743 20.3457C161.782 20.1877 161.821 20.0296 161.861 19.8716C161.9 19.7136 161.939 19.5161 161.978 19.358C162.018 19.1605 162.057 19.0025 162.096 18.8445C162.136 18.6864 162.136 18.5679 162.175 18.4889L161.743 18.4099Z" fill="#0C5F9D" stroke="#0C5F9D" stroke-width="0.0139" stroke-miterlimit="22.9256"/>
<path fill-rule="evenodd" clip-rule="evenodd" d="M114.571 27.0618C114.296 27.0618 114.021 27.1013 113.785 27.2198C113.55 27.2988 113.314 27.4568 113.118 27.6149C112.921 27.8124 112.804 28.0099 112.686 28.2865C112.568 28.563 112.529 28.8791 112.529 29.2346C112.529 29.5902 112.568 29.9062 112.686 30.1828C112.764 30.4593 112.921 30.6568 113.118 30.8544C113.314 31.0124 113.511 31.1704 113.785 31.2494C114.021 31.3284 114.335 31.3679 114.65 31.3679C114.728 31.3679 114.807 31.3679 114.924 31.3679C115.003 31.3679 115.121 31.3284 115.199 31.3284C115.278 31.3284 115.396 31.2889 115.474 31.2889C115.553 31.2494 115.631 31.2494 115.71 31.2099V31.763C115.553 31.842 115.396 31.8815 115.16 31.921C114.964 31.9605 114.767 31.9605 114.532 31.9605C114.1 31.9605 113.707 31.8815 113.393 31.763C113.078 31.6445 112.764 31.4865 112.568 31.2494C112.332 31.0124 112.175 30.7358 112.057 30.4198C111.939 30.1037 111.9 29.7087 111.9 29.3136C111.9 28.9186 111.979 28.5235 112.097 28.2074C112.214 27.8519 112.411 27.5754 112.646 27.3383C112.882 27.1013 113.157 26.9037 113.471 26.7852C113.785 26.6667 114.178 26.5877 114.571 26.5877C114.689 26.5877 114.767 26.5877 114.885 26.5877C115.003 26.5877 115.082 26.6272 115.199 26.6272C115.278 26.6272 115.396 26.6667 115.474 26.7062C115.553 26.7457 115.631 26.7457 115.671 26.7852V27.3383C115.514 27.2988 115.357 27.2593 115.16 27.2198C114.964 27.0618 114.767 27.0618 114.571 27.0618ZM117.36 26.5877V31.2494H119.873V31.842H116.692V26.6272H117.36V26.5877ZM120.895 31.8025V26.5877H121.523V31.8025H120.895ZM125.49 29.5112C125.804 29.9852 126.118 30.4593 126.433 30.9334H126.472C126.433 30.4198 126.433 29.9062 126.433 29.3926V26.6272H127.061V31.842H126.433L124.39 28.9186C124.037 28.405 123.723 27.9309 123.448 27.4963H123.408C123.448 27.9704 123.448 28.5235 123.448 29.1556V31.8025H122.819V26.5877H123.448L125.49 29.5112ZM128.357 31.8025V26.5877H128.986V31.8025H128.357ZM132.835 27.0618C132.56 27.0618 132.285 27.1013 132.049 27.2198C131.814 27.2988 131.578 27.4568 131.382 27.6149C131.185 27.8124 131.067 28.0099 130.95 28.2865C130.832 28.563 130.792 28.8791 130.792 29.2346C130.792 29.5902 130.832 29.9062 130.95 30.1828C131.028 30.4593 131.185 30.6568 131.382 30.8544C131.578 31.0124 131.774 31.1704 132.049 31.2494C132.285 31.3284 132.599 31.3679 132.913 31.3679C132.992 31.3679 133.07 31.3679 133.188 31.3679C133.267 31.3679 133.385 31.3284 133.463 31.3284C133.542 31.3284 133.66 31.2889 133.738 31.2889C133.817 31.2494 133.895 31.2494 133.974 31.2099V31.763C133.817 31.842 133.66 31.8815 133.424 31.921C133.228 31.9605 133.031 31.9605 132.796 31.9605C132.364 31.9605 131.971 31.8815 131.657 31.763C131.342 31.6445 131.028 31.4865 130.832 31.2494C130.596 31.0124 130.439 30.7358 130.321 30.4198C130.203 30.1037 130.164 29.7087 130.164 29.3136C130.164 28.9186 130.243 28.5235 130.36 28.2074C130.478 27.8519 130.675 27.5754 130.91 27.3383C131.146 27.1013 131.421 26.9037 131.735 26.7852C132.049 26.6667 132.442 26.5877 132.835 26.5877C132.953 26.5877 133.031 26.5877 133.149 26.5877C133.267 26.5877 133.345 26.6272 133.463 26.6272C133.542 26.6272 133.66 26.6667 133.738 26.7062C133.817 26.7457 133.895 26.7457 133.935 26.7852V27.3383C133.777 27.2988 133.62 27.2593 133.424 27.2198C133.188 27.0618 132.992 27.0618 132.835 27.0618ZM30.3609 28.6815H33.071V26.4297H33.6994V31.6445H33.071V29.2741H30.3609V31.6445H29.7324V26.4297H30.3609V28.6815ZM35.6633 31.0519H38.3341V31.6445H35.0348V26.4297H38.177V27.0223H35.6633V28.721H37.9021V29.3136H35.6633V31.0519ZM38.884 31.6445L41.005 26.4297H41.5548L43.6758 31.6445H43.0081L42.3797 30.0642H40.2194L39.591 31.6445H38.884ZM41.2406 27.2198C41.005 27.8519 40.8086 28.4445 40.5729 28.9976L40.3765 29.4717H42.1047L41.9083 28.9976C41.7119 28.4445 41.4763 27.8519 41.2406 27.2198ZM45.0505 26.4297V31.0914H47.5642V31.684H44.3828V26.4692H45.0505V26.4297ZM49.4495 31.6445V26.9828H51.1777V26.3902H47.0929V26.9828H48.8211V31.6445H49.4495ZM52.631 28.6815H55.3411V26.4297H55.9695V31.6445H55.3411V29.2741H52.631V31.6445H52.0025V26.4297H52.631V28.6815ZM59.3081 29.5507V31.6445H58.6797V29.5507L56.7944 26.4297H57.5013L58.9939 28.9581H59.0331L60.5257 26.4297H61.2327L59.3081 29.5507ZM66.6922 29.5112H65.5139V28.9186H67.3206V31.447C67.2813 31.4865 67.2028 31.4865 67.085 31.526C66.9671 31.5655 66.8493 31.5655 66.7315 31.605C66.6136 31.6445 66.4565 31.6445 66.2994 31.684C66.1423 31.684 65.9852 31.7235 65.8281 31.7235C65.396 31.7235 65.0033 31.6445 64.6498 31.526C64.2963 31.4074 64.0213 31.2494 63.7857 31.0124C63.55 30.7754 63.3929 30.4988 63.2751 30.1828C63.1572 29.8667 63.0787 29.5112 63.0787 29.1161C63.0787 28.6815 63.1572 28.2865 63.2751 27.9704C63.4322 27.6149 63.5893 27.3383 63.8642 27.0618C64.0999 26.8247 64.4141 26.6272 64.7676 26.5087C65.1211 26.3902 65.5139 26.3112 65.9066 26.3112C66.0245 26.3112 66.1423 26.3112 66.2601 26.3112C66.378 26.3112 66.4958 26.3507 66.5744 26.3507C66.6922 26.3507 66.7707 26.3902 66.8493 26.4297C66.9279 26.4692 67.0064 26.4692 67.085 26.5087V27.0618C66.9278 27.0223 66.7707 26.9828 66.5351 26.9433C66.3387 26.9038 66.1423 26.9037 65.9459 26.9037C65.671 26.9037 65.3568 26.9433 65.1211 27.0223C64.8462 27.1013 64.6105 27.2593 64.4141 27.4173C64.2177 27.6149 64.0606 27.8124 63.9428 28.0889C63.825 28.3655 63.7464 28.6815 63.7464 29.0371C63.7464 29.3926 63.7857 29.7087 63.9035 29.9852C64.0213 30.2618 64.1392 30.4593 64.3356 30.6173C64.5319 30.7754 64.7283 30.9334 65.0033 31.0124C65.2782 31.0914 65.5532 31.1309 65.8674 31.1309C66.0245 31.1309 66.1423 31.1309 66.2994 31.0914C66.4565 31.0914 66.5743 31.0519 66.6922 31.0124V29.5112ZM69.2452 31.0519H71.916V31.6445H68.6168V26.4297H71.7589V27.0223H69.2452V28.721H71.484V29.3136H69.2452V31.0519ZM75.6474 29.3136C75.9616 29.7877 76.2758 30.2618 76.59 30.7358H76.6293C76.59 30.2223 76.59 29.7087 76.59 29.1951V26.4297H77.2185V31.6445H76.59L74.5476 28.721C74.1941 28.2075 73.8799 27.7334 73.605 27.2988H73.5657C73.605 27.7729 73.605 28.326 73.605 28.9581V31.605H72.9765V26.3902H73.605L75.6474 29.3136ZM79.143 31.0519H81.8139V31.6445H78.5146V26.4297H81.6568V27.0223H79.143V28.721H81.3818V29.3136H79.143V31.0519ZM83.5028 29.4717V31.6445H82.8744V26.4297H84.2098C84.4454 26.4297 84.6418 26.4297 84.7989 26.4692C84.956 26.4692 85.1132 26.5087 85.231 26.5482C85.5845 26.6272 85.8594 26.8247 86.0558 27.0618C86.2522 27.2988 86.3307 27.6149 86.3307 27.9704C86.3307 28.1679 86.2915 28.3655 86.2129 28.5235C86.1344 28.6815 86.0558 28.8395 85.938 28.9581C85.8201 29.0766 85.663 29.1951 85.5059 29.2741C85.3488 29.3531 85.1524 29.3926 84.956 29.4321L86.645 31.6445H85.8594L84.2491 29.4717H83.5028ZM83.5028 26.9828V28.8791H84.1312C84.3276 28.8791 84.4847 28.8791 84.6418 28.8791C84.7989 28.8791 84.9168 28.8395 84.9953 28.8C85.231 28.721 85.3881 28.642 85.5059 28.484C85.6238 28.326 85.7023 28.1284 85.7023 27.8914C85.7023 27.6544 85.6237 27.4963 85.5452 27.3383C85.4274 27.2198 85.2703 27.1013 85.0739 27.0618C84.9953 27.0223 84.8775 27.0223 84.7597 26.9828C84.6418 26.9828 84.4847 26.9828 84.2491 26.9828H83.5028ZM87.077 31.6445L89.198 26.4297H89.7479L91.8688 31.6445H91.2011L90.5727 30.0642H88.3732L87.7447 31.6445H87.077ZM89.4336 27.2198C89.198 27.8519 89.0016 28.4445 88.7659 28.9976L88.5695 29.4717H90.2977L90.1013 28.9976C89.905 28.4445 89.6693 27.8519 89.4336 27.2198ZM94.0683 31.6445V26.9828H95.7965V26.3902H91.7117V26.9828H93.4399V31.6445H94.0683ZM96.6213 31.6445V26.4297H97.2498V31.6445H96.6213ZM102.552 29.0371C102.552 28.6815 102.513 28.3655 102.434 28.1284C102.356 27.8519 102.238 27.6544 102.042 27.4568C101.884 27.2593 101.688 27.1408 101.492 27.0618C101.295 26.9828 101.06 26.9037 100.785 26.9037C100.549 26.9037 100.313 26.9433 100.078 27.0618C99.8421 27.1408 99.685 27.2988 99.5278 27.4568C99.3707 27.6544 99.2529 27.8519 99.1351 28.1284C99.0565 28.405 99.0173 28.721 99.0173 29.0371C99.0173 29.3926 99.0565 29.7087 99.1744 29.9457C99.2529 30.2223 99.41 30.4198 99.5671 30.6173C99.7242 30.8149 99.9206 30.9334 100.117 31.0124C100.353 31.0914 100.549 31.1309 100.824 31.1309C101.06 31.1309 101.295 31.0914 101.531 31.0124C101.727 30.9334 101.924 30.7754 102.081 30.6173C102.238 30.4198 102.356 30.2223 102.474 29.9457C102.513 29.7087 102.552 29.3926 102.552 29.0371ZM103.22 29.0371C103.22 29.4321 103.181 29.7877 103.063 30.1432C102.945 30.4593 102.788 30.7754 102.591 31.0124C102.395 31.2494 102.12 31.447 101.845 31.5655C101.531 31.684 101.217 31.763 100.824 31.763C100.431 31.763 100.117 31.684 99.8028 31.5655C99.4886 31.447 99.2529 31.2494 99.0173 31.0124C98.8209 30.7754 98.6637 30.4988 98.5459 30.1432C98.4281 29.8272 98.3888 29.4321 98.3888 29.0371C98.3888 28.642 98.4281 28.2865 98.5459 27.9309C98.6637 27.6149 98.8209 27.2988 99.0173 27.0618C99.2136 26.8247 99.4886 26.6272 99.8028 26.5087C100.117 26.3902 100.431 26.3112 100.824 26.3112C101.217 26.3112 101.531 26.3902 101.845 26.5087C102.159 26.6272 102.395 26.8247 102.591 27.0618C102.788 27.2988 102.945 27.5754 103.063 27.9309C103.181 28.2865 103.22 28.642 103.22 29.0371ZM107.03 29.3136C107.344 29.7877 107.658 30.2618 107.972 30.7358H108.012C107.972 30.2223 107.972 29.7087 107.972 29.1951V26.4297H108.601V31.6445H107.972L105.93 28.721C105.577 28.2075 105.262 27.7334 104.987 27.2988H104.948C104.987 27.7729 104.987 28.326 104.987 28.9581V31.605H104.359V26.3902H104.987L107.03 29.3136Z" fill="#0C5F9D"/>
<path d="M23.9195 29.1161H1.021V29.3531H23.9195V29.1161Z" fill="#0C5F9D"/>
<path d="M163.079 29.4321H140.926V29.6692H163.079V29.4321Z" fill="#0C5F9D"/>
</g>
<defs>
<clipPath id="clip0">
<rect width="163" height="32" fill="white"/>
</clipPath>
</defs>
</svg>
